<svg width="40" height="31" viewBox="0 0 40 31" fill="none" xmlns="http://www.w3.org/2000/svg">
<path d="M27.0968 7.74194H23.2258C23.2258 5.68865 22.4101 3.71945 20.9582 2.26756C19.5064 0.815666 17.5372 0 15.4839 0C13.4306 0 11.4614 0.815666 10.0095 2.26756C8.5576 3.71945 7.74194 5.68865 7.74194 7.74194H3.87097C2.84432 7.74194 1.85973 8.14977 1.13378 8.87572C0.407833 9.60166 0 10.5863 0 11.6129L0 24.5161C0.00204885 26.2266 0.682428 27.8664 1.8919 29.0758C3.10136 30.2853 4.74117 30.9657 6.45161 30.9677H24.5161C26.2266 30.9657 27.8664 30.2853 29.0758 29.0758C30.2853 27.8664 30.9657 26.2266 30.9677 24.5161V11.6129C30.9677 10.5863 30.5599 9.60166 29.834 8.87572C29.108 8.14977 28.1234 7.74194 27.0968 7.74194ZM15.4839 2.58065C16.8527 2.58065 18.1655 3.12442 19.1335 4.09235C20.1014 5.06028 20.6452 6.37308 20.6452 7.74194H10.3226C10.3226 6.37308 10.8664 5.06028 11.8343 4.09235C12.8022 3.12442 14.115 2.58065 15.4839 2.58065ZM28.3871 24.5161C28.3871 25.5428 27.9793 26.5274 27.2533 27.2533C26.5274 27.9793 25.5428 28.3871 24.5161 28.3871H6.45161C5.42497 28.3871 4.44037 27.9793 3.71443 27.2533C2.98848 26.5274 2.58065 25.5428 2.58065 24.5161V11.6129C2.58065 11.2707 2.71659 10.9425 2.95857 10.7005C3.20055 10.4585 3.52875 10.3226 3.87097 10.3226H7.74194V12.9032C7.74194 13.2454 7.87788 13.5736 8.11986 13.8156C8.36185 14.0576 8.69004 14.1935 9.03226 14.1935C9.37447 14.1935 9.70267 14.0576 9.94465 13.8156C10.1866 13.5736 10.3226 13.2454 10.3226 12.9032V10.3226H20.6452V12.9032C20.6452 13.2454 20.7811 13.5736 21.0231 13.8156C21.2651 14.0576 21.5933 14.1935 21.9355 14.1935C22.2777 14.1935 22.6059 14.0576 22.8479 13.8156C23.0899 13.5736 23.2258 13.2454 23.2258 12.9032V10.3226H27.0968C27.439 10.3226 27.7672 10.4585 28.0092 10.7005C28.2512 10.9425 28.3871 11.2707 28.3871 11.6129V24.5161Z" fill="black"/>
<circle cx="32.258" cy="7.74194" r="7.74194" fill="black"/>
<path d="M30.1814 8.58066C30.1348 8.58066 30.0951 8.56666 30.0624 8.53866C30.0344 8.50599 30.0204 8.46632 30.0204 8.41966V8.19566C30.0204 8.15366 30.0321 8.10699 30.0554 8.05566C30.0788 8.00432 30.1254 7.94832 30.1954 7.88766L31.6794 6.40366C31.9174 6.20299 32.1041 6.03266 32.2394 5.89266C32.3794 5.74799 32.4774 5.61032 32.5334 5.47966C32.5941 5.34899 32.6244 5.21366 32.6244 5.07366C32.6244 4.80766 32.5498 4.59766 32.4004 4.44366C32.2511 4.28499 32.0294 4.20566 31.7354 4.20566C31.5488 4.20566 31.3878 4.24532 31.2524 4.32466C31.1171 4.39932 31.0098 4.50432 30.9304 4.63966C30.8558 4.77032 30.8068 4.91966 30.7834 5.08766C30.7741 5.14832 30.7484 5.19032 30.7064 5.21366C30.6691 5.23699 30.6341 5.24866 30.6014 5.24866H30.2374C30.1954 5.24866 30.1604 5.23699 30.1324 5.21366C30.1044 5.18566 30.0904 5.15299 30.0904 5.11566C30.0951 4.93832 30.1324 4.76099 30.2024 4.58366C30.2724 4.40166 30.3751 4.23832 30.5104 4.09366C30.6504 3.94899 30.8208 3.83232 31.0214 3.74366C31.2268 3.65032 31.4648 3.60366 31.7354 3.60366C32.1041 3.60366 32.4051 3.67132 32.6384 3.80666C32.8764 3.93732 33.0514 4.11232 33.1634 4.33166C33.2754 4.55099 33.3314 4.79132 33.3314 5.05266C33.3314 5.25799 33.2964 5.44699 33.2264 5.61966C33.1564 5.78766 33.0538 5.95332 32.9184 6.11666C32.7878 6.27532 32.6244 6.43866 32.4284 6.60666L31.0844 7.97166H33.2684C33.3198 7.97166 33.3594 7.98566 33.3874 8.01366C33.4201 8.04166 33.4364 8.08132 33.4364 8.13266V8.41966C33.4364 8.46632 33.4201 8.50599 33.3874 8.53866C33.3594 8.56666 33.3198 8.58066 33.2684 8.58066H30.1814Z" fill="white"/>
</svg>
